<?xml version="1.0" encoding="UTF-8" standalone="no"?>
<svg
   width="173.1718"
   height="53.192032"
   viewBox="0 0 173.1718 53.192032"
   fill="none"
   version="1.1"
   id="svg10"
   sodipodi:docname="header_logo.svg"
   inkscape:version="1.4 (86a8ad7, 2024-10-11)"
   xmlns:inkscape="http://www.inkscape.org/namespaces/inkscape"
   xmlns:sodipodi="http://sodipodi.sourceforge.net/DTD/sodipodi-0.dtd"
   xmlns="http://www.w3.org/2000/svg"
   xmlns:svg="http://www.w3.org/2000/svg">
  <defs
     id="defs10" />
  <sodipodi:namedview
     id="namedview10"
     pagecolor="#ffffff"
     bordercolor="#000000"
     borderopacity="0.25"
     inkscape:showpageshadow="2"
     inkscape:pageopacity="0.0"
     inkscape:pagecheckerboard="0"
     inkscape:deskcolor="#d1d1d1"
     showgrid="false"
     inkscape:zoom="2.1550388"
     inkscape:cx="98.838129"
     inkscape:cy="27.609712"
     inkscape:window-width="1366"
     inkscape:window-height="705"
     inkscape:window-x="-8"
     inkscape:window-y="-8"
     inkscape:window-maximized="1"
     inkscape:current-layer="svg10" />
  <path
     d="m 5.1,45.680034 c 0.488,0.104 0.88,0.348 1.176,0.732 0.296,0.376 0.444,0.808 0.444,1.296 0,0.704 -0.248,1.264 -0.744,1.68 -0.488,0.408 -1.172,0.612 -2.052,0.612 H 0 v -8.424 h 3.792 c 0.856,0 1.524,0.196 2.004,0.588 0.488,0.392 0.732,0.924 0.732,1.596 0,0.496 -0.132,0.908 -0.396,1.236 -0.256,0.328 -0.6,0.556 -1.032,0.684 z m -3.048,-0.696 h 1.344 c 0.336,0 0.592,-0.072 0.768,-0.216 0.184,-0.152 0.276,-0.372 0.276,-0.66 0,-0.288 -0.092,-0.508 -0.276,-0.66 -0.176,-0.152 -0.432,-0.228 -0.768,-0.228 H 2.052 Z m 1.512,3.36 c 0.344,0 0.608,-0.076 0.792,-0.228 0.192,-0.16 0.288,-0.388 0.288,-0.684 0,-0.296 -0.1,-0.528 -0.3,-0.696 -0.192,-0.168 -0.46,-0.252 -0.804,-0.252 H 2.052 v 1.86 z m 10.6582,-1.8 c 0,0.192 -0.012,0.392 -0.036,0.6 h -4.644 c 0.032,0.416 0.164,0.736 0.396,0.96 0.24,0.216 0.532,0.324 0.876,0.324 0.512,0 0.868,-0.216 1.068,-0.648 h 2.184 c -0.112,0.44 -0.316,0.836 -0.612,1.188 -0.288,0.352 -0.652,0.628 -1.092,0.828 -0.44,0.2 -0.932,0.3 -1.476,0.3 -0.656,0 -1.24,-0.14 -1.752,-0.42 -0.512,-0.28 -0.912,-0.68 -1.2,-1.2 -0.288,-0.52 -0.432,-1.128 -0.432,-1.824 0,-0.696 0.14,-1.304 0.42,-1.824 0.288,-0.52 0.688,-0.92 1.2,-1.2 0.512,-0.28 1.1,-0.42 1.764,-0.42 0.648,0 1.224,0.136 1.728,0.408 0.504,0.272 0.896,0.66 1.176,1.164 0.288,0.504 0.432,1.092 0.432,1.764 z m -2.1,-0.54 c 0,-0.352 -0.12,-0.632 -0.36,-0.84 -0.24,-0.208 -0.54,-0.312 -0.9,-0.312 -0.344,0 -0.636,0.1 -0.876,0.3 -0.232,0.2 -0.376,0.484 -0.432,0.852 z m 5.2345,-4.884 v 8.88 h -2.052 v -8.88 z m 1.079,5.52 c 0,-0.688 0.128,-1.292 0.384,-1.812 0.264,-0.52 0.62,-0.92 1.068,-1.2 0.448,-0.28 0.948,-0.42 1.5,-0.42 0.472,0 0.884,0.096 1.236,0.288 0.36,0.192 0.636,0.444 0.828,0.756 v -0.948 h 2.052 v 6.696 h -2.052 v -0.948 c -0.2,0.312 -0.48,0.564 -0.84,0.756 -0.352,0.192 -0.764,0.288 -1.236,0.288 -0.544,0 -1.04,-0.14 -1.488,-0.42 -0.448,-0.288 -0.804,-0.692 -1.068,-1.212 -0.256,-0.528 -0.384,-1.136 -0.384,-1.824 z m 5.016,0.012 c 0,-0.512 -0.144,-0.916 -0.432,-1.212 -0.28,-0.296 -0.624,-0.444 -1.032,-0.444 -0.408,0 -0.756,0.148 -1.044,0.444 -0.28,0.288 -0.42,0.688 -0.42,1.2 0,0.512 0.14,0.92 0.42,1.224 0.288,0.296 0.636,0.444 1.044,0.444 0.408,0 0.752,-0.148 1.032,-0.444 0.288,-0.296 0.432,-0.7 0.432,-1.212 z m 4.5566,-4.044 c -0.36,0 -0.656,-0.104 -0.888,-0.312 -0.224,-0.216 -0.336,-0.48 -0.336,-0.792 0,-0.32 0.112,-0.584 0.336,-0.792 0.232,-0.216 0.528,-0.324 0.888,-0.324 0.352,0 0.64,0.108 0.864,0.324 0.232,0.208 0.348,0.472 0.348,0.792 0,0.312 -0.116,0.576 -0.348,0.792 -0.224,0.208 -0.512,0.312 -0.864,0.312 z m 1.032,8.256 c 0,0.824 -0.208,1.416 -0.624,1.776 -0.416,0.368 -0.996,0.552 -1.74,0.552 h -0.804 v -1.74 h 0.492 c 0.224,0 0.384,-0.044 0.48,-0.132 0.096,-0.088 0.144,-0.232 0.144,-0.432 v -7.584 h 2.052 z m 1.0673,-4.224 c 0,-0.688 0.128,-1.292 0.384,-1.812 0.264,-0.52 0.62,-0.92 1.068,-1.2 0.448,-0.28 0.948,-0.42 1.5,-0.42 0.472,0 0.884,0.096 1.236,0.288 0.36,0.192 0.636,0.444 0.828,0.756 v -0.948 h 2.052 v 6.696 h -2.052 v -0.948 c -0.2,0.312 -0.48,0.564 -0.84,0.756 -0.352,0.192 -0.764,0.288 -1.236,0.288 -0.544,0 -1.04,-0.14 -1.488,-0.42 -0.448,-0.288 -0.804,-0.692 -1.068,-1.212 -0.256,-0.528 -0.384,-1.136 -0.384,-1.824 z m 5.016,0.012 c 0,-0.512 -0.144,-0.916 -0.432,-1.212 -0.28,-0.296 -0.624,-0.444 -1.032,-0.444 -0.408,0 -0.756,0.148 -1.044,0.444 -0.28,0.288 -0.42,0.688 -0.42,1.2 0,0.512 0.14,0.92 0.42,1.224 0.288,0.296 0.636,0.444 1.044,0.444 0.408,0 0.752,-0.148 1.032,-0.444 0.288,-0.296 0.432,-0.7 0.432,-1.212 z m 5.5886,-2.232 c 0.24,-0.368 0.54,-0.656 0.9,-0.864 0.36,-0.216 0.76,-0.324 1.2,-0.324 v 2.172 h -0.564 c -0.512,0 -0.896,0.112 -1.152,0.336 -0.256,0.216 -0.384,0.6 -0.384,1.152 v 3.108 h -2.052 v -6.696 h 2.052 z m 10.7237,1.26 c 0.488,0.104 0.88,0.348 1.176,0.732 0.296,0.376 0.444,0.808 0.444,1.296 0,0.704 -0.248,1.264 -0.744,1.68 -0.488,0.408 -1.172,0.612 -2.052,0.612 h -3.924 v -8.424 h 3.792 c 0.856,0 1.524,0.196 2.004,0.588 0.488,0.392 0.732,0.924 0.732,1.596 0,0.496 -0.132,0.908 -0.396,1.236 -0.256,0.328 -0.6,0.556 -1.032,0.684 z m -3.048,-0.696 h 1.344 c 0.336,0 0.592,-0.072 0.768,-0.216 0.184,-0.152 0.276,-0.372 0.276,-0.66 0,-0.288 -0.092,-0.508 -0.276,-0.66 -0.176,-0.152 -0.432,-0.228 -0.768,-0.228 h -1.344 z m 1.512,3.36 c 0.344,0 0.608,-0.076 0.792,-0.228 0.192,-0.16 0.288,-0.388 0.288,-0.684 0,-0.296 -0.1,-0.528 -0.3,-0.696 -0.192,-0.168 -0.46,-0.252 -0.804,-0.252 h -1.488 v 1.86 z m 3.9382,-1.704 c 0,-0.688 0.128,-1.292 0.384,-1.812 0.264,-0.52 0.62,-0.92 1.068,-1.2 0.448,-0.28 0.948,-0.42 1.5,-0.42 0.472,0 0.884,0.096 1.236,0.288 0.36,0.192 0.636,0.444 0.828,0.756 v -0.948 h 2.052 v 6.696 h -2.052 v -0.948 c -0.2,0.312 -0.48,0.564 -0.84,0.756 -0.352,0.192 -0.764,0.288 -1.236,0.288 -0.544,0 -1.04,-0.14 -1.488,-0.42 -0.448,-0.288 -0.804,-0.692 -1.068,-1.212 -0.256,-0.528 -0.384,-1.136 -0.384,-1.824 z m 5.016,0.012 c 0,-0.512 -0.144,-0.916 -0.432,-1.212 -0.28,-0.296 -0.624,-0.444 -1.032,-0.444 -0.408,0 -0.756,0.148 -1.044,0.444 -0.28,0.288 -0.42,0.688 -0.42,1.2 0,0.512 0.14,0.92 0.42,1.224 0.288,0.296 0.636,0.444 1.044,0.444 0.408,0 0.752,-0.148 1.032,-0.444 0.288,-0.296 0.432,-0.7 0.432,-1.212 z m 7.6525,-3.42 c 0.768,0 1.384,0.256 1.848,0.768 0.464,0.504 0.696,1.2 0.696,2.088 v 3.912 h -2.04 v -3.636 c 0,-0.448 -0.116,-0.796 -0.348,-1.044 -0.232,-0.248 -0.544,-0.372 -0.936,-0.372 -0.392,0 -0.704,0.124 -0.936,0.372 -0.232,0.248 -0.348,0.596 -0.348,1.044 v 3.636 h -2.052 v -8.88 h 2.052 v 3.084 c 0.208,-0.296 0.492,-0.532 0.852,-0.708 0.36,-0.176 0.764,-0.264 1.212,-0.264 z m 3.5622,3.408 c 0,-0.688 0.128,-1.292 0.384,-1.812 0.264,-0.52 0.62,-0.92 1.068,-1.2 0.448,-0.28 0.948,-0.42 1.5,-0.42 0.472,0 0.884,0.096 1.236,0.288 0.36,0.192 0.636,0.444 0.828,0.756 v -0.948 h 2.052 v 6.696 h -2.052 v -0.948 c -0.2,0.312 -0.48,0.564 -0.84,0.756 -0.352,0.192 -0.764,0.288 -1.236,0.288 -0.544,0 -1.04,-0.14 -1.488,-0.42 -0.448,-0.288 -0.804,-0.692 -1.068,-1.212 -0.256,-0.528 -0.384,-1.136 -0.384,-1.824 z m 5.016,0.012 c 0,-0.512 -0.144,-0.916 -0.432,-1.212 -0.28,-0.296 -0.624,-0.444 -1.032,-0.444 -0.408,0 -0.756,0.148 -1.044,0.444 -0.28,0.288 -0.42,0.688 -0.42,1.2 0,0.512 0.14,0.92 0.42,1.224 0.288,0.296 0.636,0.444 1.044,0.444 0.408,0 0.752,-0.148 1.032,-0.444 0.288,-0.296 0.432,-0.7 0.432,-1.212 z m 6.26,3.444 c -0.584,0 -1.104,-0.1 -1.56,-0.3 -0.456,-0.2 -0.816,-0.472 -1.08,-0.816 -0.264,-0.352 -0.412,-0.744 -0.444,-1.176 h 2.028 c 0.024,0.232 0.132,0.42 0.324,0.564 0.192,0.144 0.428,0.216 0.708,0.216 0.256,0 0.452,-0.048 0.588,-0.144 0.144,-0.104 0.216,-0.236 0.216,-0.396 0,-0.192 -0.1,-0.332 -0.3,-0.42 -0.2,-0.096 -0.524,-0.2 -0.972,-0.312 -0.48,-0.112 -0.88,-0.228 -1.2,-0.348 -0.32,-0.128 -0.596,-0.324 -0.828,-0.588 -0.232,-0.272 -0.348,-0.636 -0.348,-1.092 0,-0.384 0.104,-0.732 0.312,-1.044 0.216,-0.32 0.528,-0.572 0.936,-0.756 0.416,-0.184 0.908,-0.276 1.476,-0.276 0.84,0 1.5,0.208 1.98,0.624 0.488,0.416 0.768,0.968 0.84,1.656 h -1.896 c -0.032,-0.232 -0.136,-0.416 -0.312,-0.552 -0.168,-0.136 -0.392,-0.204 -0.672,-0.204 -0.24,0 -0.424,0.048 -0.552,0.144 -0.128,0.088 -0.192,0.212 -0.192,0.372 0,0.192 0.1,0.336 0.3,0.432 0.208,0.096 0.528,0.192 0.96,0.288 0.496,0.128 0.9,0.256 1.212,0.384 0.312,0.12 0.584,0.32 0.816,0.6 0.24,0.272 0.364,0.64 0.372,1.104 0,0.392 -0.112,0.744 -0.336,1.056 -0.216,0.304 -0.532,0.544 -0.948,0.72 -0.408,0.176 -0.884,0.264 -1.428,0.264 z m 3.56,-3.456 c 0,-0.688 0.128,-1.292 0.384,-1.812 0.264,-0.52 0.62,-0.92 1.068,-1.2 0.448,-0.28 0.948,-0.42 1.5,-0.42 0.472,0 0.884,0.096 1.236,0.288 0.36,0.192 0.636,0.444 0.828,0.756 v -0.948 h 2.052 v 6.696 h -2.052 v -0.948 c -0.2,0.312 -0.48,0.564 -0.84,0.756 -0.352,0.192 -0.764,0.288 -1.236,0.288 -0.544,0 -1.04,-0.14 -1.488,-0.42 -0.448,-0.288 -0.804,-0.692 -1.068,-1.212 -0.256,-0.528 -0.384,-1.136 -0.384,-1.824 z m 5.016,0.012 c 0,-0.512 -0.144,-0.916 -0.432,-1.212 -0.28,-0.296 -0.624,-0.444 -1.032,-0.444 -0.408,0 -0.756,0.148 -1.044,0.444 -0.28,0.288 -0.42,0.688 -0.42,1.2 0,0.512 0.14,0.92 0.42,1.224 0.288,0.296 0.636,0.444 1.044,0.444 0.408,0 0.752,-0.148 1.032,-0.444 0.288,-0.296 0.432,-0.7 0.432,-1.212 z m 11.359,-5.076 v 5.736 c 0,0.888 -0.252,1.572 -0.756,2.052 -0.496,0.48 -1.168,0.72 -2.016,0.72 -0.888,0 -1.6,-0.252 -2.136,-0.756 -0.536,-0.504 -0.804,-1.22 -0.804,-2.148 h 2.04 c 0,0.352 0.072,0.62 0.216,0.804 0.144,0.176 0.352,0.264 0.624,0.264 0.248,0 0.44,-0.08 0.576,-0.24 0.136,-0.16 0.204,-0.392 0.204,-0.696 v -5.736 z m 1.25,5.064 c 0,-0.688 0.128,-1.292 0.384,-1.812 0.264,-0.52 0.62,-0.92 1.068,-1.2 0.448,-0.28 0.948,-0.42 1.5,-0.42 0.472,0 0.884,0.096 1.236,0.288 0.36,0.192 0.636,0.444 0.828,0.756 v -0.948 h 2.052 v 6.696 h -2.052 v -0.948 c -0.2,0.312 -0.48,0.564 -0.84,0.756 -0.352,0.192 -0.764,0.288 -1.236,0.288 -0.544,0 -1.04,-0.14 -1.488,-0.42 -0.448,-0.288 -0.804,-0.692 -1.068,-1.212 -0.256,-0.528 -0.384,-1.136 -0.384,-1.824 z m 5.016,0.012 c 0,-0.512 -0.144,-0.916 -0.432,-1.212 -0.28,-0.296 -0.624,-0.444 -1.032,-0.444 -0.408,0 -0.756,0.148 -1.044,0.444 -0.28,0.288 -0.42,0.688 -0.42,1.2 0,0.512 0.14,0.92 0.42,1.224 0.288,0.296 0.636,0.444 1.044,0.444 0.408,0 0.752,-0.148 1.032,-0.444 0.288,-0.296 0.432,-0.7 0.432,-1.212 z m 13.148,-3.348 -1.812,6.696 h -2.268 l -1.056,-4.344 -1.092,4.344 h -2.256 l -1.824,-6.696 h 2.052 l 0.948,4.788 1.128,-4.788 h 2.172 l 1.14,4.764 0.936,-4.764 z m 0.375,3.336 c 0,-0.688 0.128,-1.292 0.384,-1.812 0.264,-0.52 0.62,-0.92 1.068,-1.2 0.448,-0.28 0.948,-0.42 1.5,-0.42 0.472,0 0.884,0.096 1.236,0.288 0.36,0.192 0.636,0.444 0.828,0.756 v -0.948 h 2.052 v 6.696 h -2.052 v -0.948 c -0.2,0.312 -0.48,0.564 -0.84,0.756 -0.352,0.192 -0.764,0.288 -1.236,0.288 -0.544,0 -1.04,-0.14 -1.488,-0.42 -0.448,-0.288 -0.804,-0.692 -1.068,-1.212 -0.256,-0.528 -0.384,-1.136 -0.384,-1.824 z m 5.016,0.012 c 0,-0.512 -0.144,-0.916 -0.432,-1.212 -0.28,-0.296 -0.624,-0.444 -1.032,-0.444 -0.408,0 -0.756,0.148 -1.044,0.444 -0.28,0.288 -0.42,0.688 -0.42,1.2 0,0.512 0.14,0.92 0.42,1.224 0.288,0.296 0.636,0.444 1.044,0.444 0.408,0 0.752,-0.148 1.032,-0.444 0.288,-0.296 0.432,-0.7 0.432,-1.212 z m 10.963,3.348 -2.832,-3.72 v 3.72 h -2.052 v -8.424 h 2.052 v 3.696 l 2.808,-3.696 h 2.412 l -3.264,4.128 3.384,4.296 z m 5.535,-5.58 c 0.24,-0.368 0.54,-0.656 0.9,-0.864 0.36,-0.216 0.76,-0.324 1.2,-0.324 v 2.172 h -0.564 c -0.512,0 -0.896,0.112 -1.152,0.336 -0.256,0.216 -0.384,0.6 -0.384,1.152 v 3.108 h -2.052 v -6.696 h 2.052 z m 2.673,2.22 c 0,-0.688 0.128,-1.292 0.384,-1.812 0.264,-0.52 0.62,-0.92 1.068,-1.2 0.448,-0.28 0.948,-0.42 1.5,-0.42 0.472,0 0.884,0.096 1.236,0.288 0.36,0.192 0.636,0.444 0.828,0.756 v -0.948 h 2.052 v 6.696 h -2.052 v -0.948 c -0.2,0.312 -0.48,0.564 -0.84,0.756 -0.352,0.192 -0.764,0.288 -1.236,0.288 -0.544,0 -1.04,-0.14 -1.488,-0.42 -0.448,-0.288 -0.804,-0.692 -1.068,-1.212 -0.256,-0.528 -0.384,-1.136 -0.384,-1.824 z m 5.016,0.012 c 0,-0.512 -0.144,-0.916 -0.432,-1.212 -0.28,-0.296 -0.624,-0.444 -1.032,-0.444 -0.408,0 -0.756,0.148 -1.044,0.444 -0.28,0.288 -0.42,0.688 -0.42,1.2 0,0.512 0.14,0.92 0.42,1.224 0.288,0.296 0.636,0.444 1.044,0.444 0.408,0 0.752,-0.148 1.032,-0.444 0.288,-0.296 0.432,-0.7 0.432,-1.212 z m 12.081,-3.42 c 0.832,0 1.492,0.252 1.98,0.756 0.496,0.504 0.744,1.204 0.744,2.1 v 3.912 h -2.04 v -3.636 c 0,-0.432 -0.116,-0.764 -0.348,-0.996 -0.224,-0.24 -0.536,-0.36 -0.936,-0.36 -0.4,0 -0.716,0.12 -0.948,0.36 -0.224,0.232 -0.336,0.564 -0.336,0.996 v 3.636 h -2.04 v -3.636 c 0,-0.432 -0.116,-0.764 -0.348,-0.996 -0.224,-0.24 -0.536,-0.36 -0.936,-0.36 -0.4,0 -0.716,0.12 -0.948,0.36 -0.224,0.232 -0.336,0.564 -0.336,0.996 v 3.636 h -2.052 v -6.696 h 2.052 v 0.84 c 0.208,-0.28 0.48,-0.5 0.816,-0.66 0.336,-0.168 0.716,-0.252 1.14,-0.252 0.504,0 0.952,0.108 1.344,0.324 0.4,0.216 0.712,0.524 0.936,0.924 0.232,-0.368 0.548,-0.668 0.948,-0.9 0.4,-0.232 0.836,-0.348 1.308,-0.348 z m 3.751,3.408 c 0,-0.688 0.128,-1.292 0.384,-1.812 0.264,-0.52 0.62,-0.92 1.068,-1.2 0.448,-0.28 0.948,-0.42 1.5,-0.42 0.472,0 0.884,0.096 1.236,0.288 0.36,0.192 0.636,0.444 0.828,0.756 v -0.948 h 2.052 v 6.696 h -2.052 v -0.948 c -0.2,0.312 -0.48,0.564 -0.84,0.756 -0.352,0.192 -0.764,0.288 -1.236,0.288 -0.544,0 -1.04,-0.14 -1.488,-0.42 -0.448,-0.288 -0.804,-0.692 -1.068,-1.212 -0.256,-0.528 -0.384,-1.136 -0.384,-1.824 z m 5.016,0.012 c 0,-0.512 -0.144,-0.916 -0.432,-1.212 -0.28,-0.296 -0.624,-0.444 -1.032,-0.444 -0.408,0 -0.756,0.148 -1.044,0.444 -0.28,0.288 -0.42,0.688 -0.42,1.2 0,0.512 0.14,0.92 0.42,1.224 0.288,0.296 0.636,0.444 1.044,0.444 0.408,0 0.752,-0.148 1.032,-0.444 0.288,-0.296 0.432,-0.7 0.432,-1.212 z"
     fill="#fafdfc"
     id="path1" />
  <path
     d="m 63.0579,0.80803363 c 1.408,0 2.72,0.26669997 3.936,0.79999997 1.2374,0.5333 2.304,1.3333 3.1999,2.4 0.917,1.0453 1.632,2.3573 2.144,3.936 0.512,1.5573 0.768,3.3813004 0.768,5.4720004 0,1.8133 -0.203,3.4347 -0.608,4.864 -0.405,1.408 -1.003,2.6133 -1.792,3.616 -0.768,0.9813 -1.7065,1.7387 -2.8159,2.272 -1.1093,0.5333 -2.368,0.8107 -3.776,0.832 h -4.608 v -13.792 c 0,-0.4907 -0.0853,-0.9387 -0.256,-1.3440004 -0.1706,-0.4267 -0.352,-0.8 -0.544,-1.12 -0.256,-0.3627 -0.5333,-0.6933 -0.832,-0.992 l 3.68,-1.632 c 0.4694,0.2133 0.896,0.5013 1.28,0.864 0.32,0.32 0.608,0.7573 0.864,1.312 0.2774,0.5333 0.416,1.2053 0.416,2.0160004 v 13.472 c 0.7894,-0.128 1.472,-0.4587 2.048,-0.992 0.576,-0.5547 1.0454,-1.2373 1.408,-2.048 0.384,-0.832 0.6614,-1.7707 0.832,-2.816 0.192,-1.0453 0.288,-2.1333 0.288,-3.264 0,-1.6853 -0.2133,-3.1467 -0.64,-4.384 -0.4266,-1.2373004 -0.992,-2.2507004 -1.696,-3.0400004 -0.704,-0.8107 -1.504,-1.408 -2.4,-1.792 -0.8746,-0.4053 -1.76,-0.608 -2.656,-0.608 -0.704,0 -1.3866,0.1173 -2.048,0.352 -0.6613,0.2133 -1.28,0.544 -1.856,0.992 -0.5546,0.4267 -1.0453,0.9707 -1.472,1.632 -0.4053,0.64 -0.7146,1.376 -0.928,2.2080004 h -0.032 c -0.2773,-1.1093004 -0.3306,-2.2080004 -0.16,-3.2960004 0.1494,-1.1093 0.5547,-2.1013 1.216,-2.976 0.6614,-0.8747 1.568,-1.5787 2.72,-2.112 1.1734,-0.5547 2.6134,-0.83199997 4.32,-0.83199997 z M 76.7648,2.3120336 c 0.469,0.192 0.896,0.48 1.28,0.864 0.299,0.2987 0.576,0.7253 0.832,1.28 0.277,0.5333 0.416,1.2053 0.416,2.016 V 24.808034 h -4.576 V 7.4000336 c 0,-0.4907 -0.085,-0.9493 -0.256,-1.376 -0.171,-0.4267 -0.352,-0.7893 -0.544,-1.088 -0.256,-0.3627 -0.533,-0.6933 -0.832,-0.992 z m 20.18,17.9840004 c 0,0.64 0.085,1.1627 0.256,1.568 0.171,0.384 0.363,0.6933 0.576,0.928 0.235,0.2773 0.501,0.4693 0.8,0.576 l -1.92,2.272 c -0.811,0.0853 -1.525,0.032 -2.144,-0.16 -0.533,-0.1707 -1.024,-0.48 -1.472,-0.928 -0.448,-0.4693 -0.672,-1.184 -0.672,-2.144 v -0.32 c -0.277,0.9173 -0.779,1.6747 -1.504,2.272 -0.725,0.5973 -1.781,0.896 -3.168,0.896 -1.088,0 -2.069,-0.2133 -2.944,-0.64 -0.875,-0.448 -1.632,-1.1307 -2.272,-2.048 -0.619,-0.9173 -1.099,-2.0693 -1.44,-3.456 -0.32,-1.3867 -0.48,-3.0293 -0.48,-4.928 v -0.192 c 0,-1.4933 0.181,-2.9013 0.544,-4.2240004 0.363,-1.3227 0.907,-2.4747 1.632,-3.456 0.747,-0.9813 1.664,-1.7493 2.752,-2.304 1.109,-0.576 2.411,-0.864 3.904,-0.864 0.96,0 1.771,0.1707 2.432,0.512 0.683,0.3413 1.248,0.7147 1.696,1.12 0.512,0.4907 0.949,1.0453 1.312,1.664 l -0.032,0.032 c -1.195,-0.4907 -2.347,-0.736 -3.456,-0.736 -1.856,0 -3.328,0.7253 -4.416,2.176 -1.067,1.4293 -1.6,3.4880004 -1.6,6.1760004 0,1.408 0.128,2.6453 0.384,3.712 0.256,1.0453 0.587,1.9093 0.992,2.592 0.427,0.6827 0.896,1.1947 1.408,1.536 0.512,0.3413 1.013,0.512 1.504,0.512 0.747,0 1.387,-0.3627 1.92,-1.088 0.555,-0.7253 0.832,-1.824 0.832,-3.296 v -4.384 h 4.576 z m 4.914,-17.9840004 c 0.469,0.192 0.896,0.48 1.28,0.864 0.298,0.2987 0.576,0.7253 0.832,1.28 0.277,0.5333 0.416,1.2053 0.416,2.016 V 24.808034 h -4.576 V 7.4000336 c 0,-0.4907 -0.086,-0.9493 -0.256,-1.376 -0.171,-0.4267 -0.352,-0.7893 -0.544,-1.088 -0.256,-0.3627 -0.534,-0.6933 -0.832,-0.992 z m 25.588,1.504 c -0.213,4.032 -0.608,7.6267004 -1.184,10.7840004 -0.256,1.344 -0.555,2.6667 -0.896,3.968 -0.341,1.3013 -0.757,2.464 -1.248,3.488 -0.469,1.0027 -1.013,1.8133 -1.632,2.432 -0.597,0.6187 -1.28,0.928 -2.048,0.928 -0.96,0 -1.76,-0.2667 -2.4,-0.8 -0.619,-0.5547 -1.131,-1.28 -1.536,-2.176 -0.448,0.896 -0.96,1.6213 -1.536,2.176 -0.576,0.5333 -1.227,0.8 -1.952,0.8 -1.195,0 -2.144,-0.4373 -2.848,-1.312 -0.683,-0.8747 -1.216,-1.9947 -1.6,-3.36 -0.384,-1.3653 -0.672,-2.88 -0.864,-4.544 -0.171,-1.664 -0.352,-3.2853 -0.544,-4.864 -0.171,-1.6000004 -0.405,-3.0507004 -0.704,-4.3520004 -0.277,-1.3227 -0.704,-2.3147 -1.28,-2.976 0.299,-0.128 0.651,-0.2773 1.056,-0.448 0.405,-0.192 0.789,-0.3733 1.152,-0.544 0.427,-0.2133 0.864,-0.4267 1.312,-0.64 0.469,0.192 0.896,0.48 1.28,0.864 0.32,0.32 0.608,0.7467 0.864,1.28 0.277,0.5333 0.416,1.216 0.416,2.048 0,0.832 0.011,1.8347 0.032,3.008 0.043,1.1733004 0.096,2.3893004 0.16,3.6480004 0.064,1.2587 0.149,2.5173 0.256,3.776 0.107,1.2587 0.224,2.3787 0.352,3.36 0.128,0.9813 0.277,1.7813 0.448,2.4 0.171,0.6187 0.352,0.928 0.544,0.928 0.256,0 0.48,-0.2773 0.672,-0.832 0.192,-0.576 0.363,-1.3333 0.512,-2.272 0.149,-0.9387 0.277,-2.0053 0.384,-3.2 0.107,-1.1947 0.192,-2.4107 0.256,-3.648 0.149,-2.9013 0.245,-6.2080004 0.288,-9.9200004 h 4.864 c -0.043,0.9387 -0.107,1.9413 -0.192,3.008 -0.085,0.9173 -0.192,1.9733 -0.32,3.168 -0.128,1.1733004 -0.299,2.4000004 -0.512,3.6800004 -0.256,1.5573 -0.384,2.9547 -0.384,4.192 0,1.2373 0.085,2.2933 0.256,3.168 0.171,0.8533 0.395,1.5147 0.672,1.984 0.299,0.448 0.608,0.672 0.928,0.672 0.256,0 0.48,-0.2773 0.672,-0.832 0.192,-0.576 0.363,-1.3333 0.512,-2.272 0.149,-0.9387 0.277,-2.0053 0.384,-3.2 0.107,-1.1947 0.192,-2.4107 0.256,-3.648 0.149,-2.9013 0.245,-6.2080004 0.288,-9.9200004 z m 13.032,15.8720004 c 0.171,0.64 0.373,1.1413 0.608,1.504 0.256,0.3413 0.512,0.5973 0.768,0.768 0.277,0.192 0.576,0.3093 0.896,0.352 l -1.344,2.656 c -0.149,0.064 -0.32,0.1173 -0.512,0.16 -0.363,0.1067 -0.789,0.16 -1.28,0.16 -0.299,0 -0.608,-0.0427 -0.928,-0.128 -0.299,-0.064 -0.597,-0.1813 -0.896,-0.352 -0.277,-0.192 -0.533,-0.448 -0.768,-0.768 -0.235,-0.32 -0.416,-0.736 -0.544,-1.248 -0.107,-0.384 -0.224,-0.8427 -0.352,-1.376 -0.128,-0.5333 -0.256,-1.088 -0.384,-1.664 -0.085,0.96 -0.331,1.792 -0.736,2.496 -0.384,0.704 -0.853,1.3013 -1.408,1.792 -0.533,0.4693 -1.131,0.8213 -1.792,1.056 -0.64,0.2347 -1.269,0.352 -1.888,0.352 -0.512,0 -0.992,-0.0747 -1.44,-0.224 -0.448,-0.1493 -0.843,-0.3733 -1.184,-0.672 -0.341,-0.2987 -0.619,-0.6613 -0.832,-1.088 -0.192,-0.448 -0.288,-0.9707 -0.288,-1.568 0,-1.0667 0.192,-2.048 0.576,-2.944 0.384,-0.896 0.853,-1.76 1.408,-2.592 0.555,-0.832 1.141,-1.6533 1.76,-2.464 0.619,-0.832 1.152,-1.696 1.6,-2.592 0.448,-0.896 0.768,-1.8560004 0.96,-2.8800004 0.192,-1.0453 0.149,-2.1973 -0.128,-3.456 -0.064,-0.384 -0.128,-0.6613 -0.192,-0.832 l -0.064,-0.288 4.48,-1.024 z m -9.888,-0.096 c 0,0.704 0.171,1.2267 0.512,1.568 0.341,0.3413 0.736,0.512 1.184,0.512 0.384,0 0.768,-0.1173 1.152,-0.352 0.405,-0.256 0.747,-0.6187 1.024,-1.088 0.277,-0.4907 0.469,-1.088 0.576,-1.792 0.107,-0.7253 0.053,-1.568 -0.16,-2.528 -0.299,-1.216 -0.587,-2.432 -0.864,-3.648 -0.277,-1.216 -0.533,-2.3680004 -0.768,-3.4560004 0.043,1.2800004 -0.075,2.4427004 -0.352,3.4880004 -0.277,1.0453 -0.587,2.0053 -0.928,2.88 -0.341,0.8533 -0.661,1.6427 -0.96,2.368 -0.277,0.7253 -0.416,1.408 -0.416,2.048 z"
     fill="#ffffff"
     fill-opacity="0.97"
     id="path2" />
  <path
     d="m 17.8176,12.506634 c 0.1172,0.1634 0.3867,0.5253 0.5274,0.6654 0.1406,0.1401 0.5039,0.3853 0.668,0.4904 l 0.5626,0.2451 c 0.1758,0.0467 0.5696,0.1401 0.7383,0.1401 0.1688,0 1.6643,-0.3269 2.3909,-0.4903 l 2.2151,-1.0507 2.3558,-1.2609 3.1995,-1.7512004 4.606,-2.3116 6.7508,-3.1871 c -0.3164,-0.432 -1.0337,-1.352 -1.3713,-1.5761 -0.4219,-0.2802 -1.0196,-0.5604 -1.336,-0.6655 -0.3165,-0.105 -1.7229,-0.1751 -2.2503,0.1051 -0.4219,0.2242 -1.9338,0.8406 -2.637,1.1208 l -7.1375,3.047 -9.0153,3.8527 z"
     fill="#ffcc29"
     id="path3" />
  <path
     d="m 32.5145,8.9691336 4.817,-2.0314 7.243,3.0822004 0.2461,2.4516 -1.3712,0.9457 c -0.3282,0.1868 -1.0549,0.5604 -1.3361,0.5604 -0.3516,0 -0.7736,0.105 -1.0548,0 -0.2251,-0.0841 -1.594,-0.6655 -2.2503,-0.9457 l -3.3051,-2.1715 -2.5315,-1.5410004 z"
     fill="#ffcc29"
     id="path4" />
  <path
     d="m 27.8382,11.911234 4.0786,-2.2065004 3.1996,1.8913004 -3.7973,3.8526 z"
     fill="#ffcc29"
     id="path5" />
  <path
     d="m 20.1733,4.7664336 c -0.6329,1.1674 -1.8916,3.6144 -1.8635,4.0627 h 0.2813 l 4.9927,-2.1714 0.5626,-0.2802 z"
     fill="#ffcc29"
     id="path6" />
  <path
     d="m 20.8062,4.0309336 4.4653,1.8562 4.7467,-1.9963 0.0703,-0.0351 -3.9028,-1.7512 c -0.4102,-0.14 -1.2939,-0.4132 -1.5471,-0.3852 -0.3164,0.035 -1.336,0.07 -1.8986,0.3852 -0.4501,0.2522 -1.3127,1.1091 -1.6877,1.5061 z"
     fill="#ffcc29"
     id="path7" />
  <path
     d="m 26.0802,1.0538336 c 0.9728,-0.37359997 3.284,-1.10679997 4.7466,-1.05079997 1.8284,0.0701 3.3754,0.2802 3.938,0.4553 0.45,0.1401 1.4064,0.4554 1.8283,0.59549997 v 0.1401 l -5.3443,2.1014 z"
     fill="#ffcc29"
     id="path8" />
  <path
     d="m 38.5621,6.4125336 3.8324,-1.6461 c 0.6915,1.1557 2.0393,3.5724 1.8987,3.9927 v 0.07 z"
     fill="#ffcc29"
     id="path9" />
  <path
     d="m 17.8527,21.472634 c 0.3047,0.3853 0.9353,1.1769 1.0196,1.2609 0.1055,0.1051 1.7581,1.471 2.7074,1.8213 0.7594,0.2801 1.6994,0.5136 2.0744,0.5954 l 1.5822,0.2101 h 2.1097 c 0.5039,-0.035 1.5681,-0.1261 1.7931,-0.2101 0.225,-0.0841 0.9845,-0.3386 1.3361,-0.4553 l 0.8439,-0.4904 0.7383,0.4553 c 0.3985,0.1518 1.2236,0.4623 1.3361,0.4904 0.1406,0.035 0.9493,0.2101 1.3361,0.2101 0.3094,0 1.1603,0.0467 1.547,0.0701 l 2.3206,-0.2102 1.7229,-0.3853 1.4767,-0.6654 1.4416,-0.9457 0.9845,-0.9806 0.5274,-0.8056 -1.09,0.2102 c -0.6329,0.1167 -2.0674,0.3362 -2.7425,0.2802 -0.6751,-0.0561 -1.1251,-0.1168 -1.2658,-0.1401 l -1.1954,-0.1401 -2.6019,-0.7005 -1.4767,-0.4553 c -0.4922,-0.1051 -1.5752,-0.3012 -1.969,-0.2452 -0.3938,0.0561 -0.8907,0.4903 -1.0899,0.7005 l -0.422,-0.3502 c -0.1054,-0.1168 -0.4149,-0.3503 -0.8087,-0.3503 -0.4922,0 -1.8986,0.2102 -2.4963,0.4553 -0.4782,0.1962 -1.3713,0.432 -1.758,0.5254 l -1.3713,0.4203 -1.3361,0.2101 h -2.8128 l -1.1603,-0.2101 -0.9845,-0.1752 z"
     fill="#ffcc29"
     id="path10" />
</svg>
