<svg width="318" height="133" viewBox="0 0 318 133" fill="none" xmlns="http://www.w3.org/2000/svg">
<path d="M61.7224 104.8C62.5358 104.973 63.1891 105.38 63.6824 106.02C64.1758 106.647 64.4224 107.367 64.4224 108.18C64.4224 109.353 64.0091 110.287 63.1824 110.98C62.3691 111.66 61.2291 112 59.7624 112H53.2224V97.96H59.5424C60.9691 97.96 62.0824 98.2867 62.8824 98.94C63.6958 99.5933 64.1024 100.48 64.1024 101.6C64.1024 102.427 63.8824 103.113 63.4424 103.66C63.0158 104.207 62.4424 104.587 61.7224 104.8ZM56.6424 103.64H58.8824C59.4424 103.64 59.8691 103.52 60.1624 103.28C60.4691 103.027 60.6224 102.66 60.6224 102.18C60.6224 101.7 60.4691 101.333 60.1624 101.08C59.8691 100.827 59.4424 100.7 58.8824 100.7H56.6424V103.64ZM59.1624 109.24C59.7358 109.24 60.1758 109.113 60.4824 108.86C60.8024 108.593 60.9624 108.213 60.9624 107.72C60.9624 107.227 60.7958 106.84 60.4624 106.56C60.1424 106.28 59.6958 106.14 59.1224 106.14H56.6424V109.24H59.1624ZM76.926 106.24C76.926 106.56 76.906 106.893 76.866 107.24H69.126C69.1793 107.933 69.3993 108.467 69.786 108.84C70.186 109.2 70.6727 109.38 71.246 109.38C72.0993 109.38 72.6927 109.02 73.026 108.3H76.666C76.4793 109.033 76.1393 109.693 75.646 110.28C75.166 110.867 74.5593 111.327 73.826 111.66C73.0927 111.993 72.2727 112.16 71.366 112.16C70.2727 112.16 69.2993 111.927 68.446 111.46C67.5927 110.993 66.926 110.327 66.446 109.46C65.966 108.593 65.726 107.58 65.726 106.42C65.726 105.26 65.9593 104.247 66.426 103.38C66.906 102.513 67.5727 101.847 68.426 101.38C69.2793 100.913 70.2593 100.68 71.366 100.68C72.446 100.68 73.406 100.907 74.246 101.36C75.086 101.813 75.7393 102.46 76.206 103.3C76.686 104.14 76.926 105.12 76.926 106.24ZM73.426 105.34C73.426 104.753 73.226 104.287 72.826 103.94C72.426 103.593 71.926 103.42 71.326 103.42C70.7527 103.42 70.266 103.587 69.866 103.92C69.4793 104.253 69.2393 104.727 69.146 105.34H73.426ZM82.1502 97.2V112H78.7302V97.2H82.1502ZM83.9487 106.4C83.9487 105.253 84.162 104.247 84.5887 103.38C85.0287 102.513 85.622 101.847 86.3687 101.38C87.1153 100.913 87.9487 100.68 88.8687 100.68C89.6553 100.68 90.342 100.84 90.9287 101.16C91.5287 101.48 91.9887 101.9 92.3087 102.42V100.84H95.7287V112H92.3087V110.42C91.9753 110.94 91.5087 111.36 90.9087 111.68C90.322 112 89.6353 112.16 88.8487 112.16C87.942 112.16 87.1153 111.927 86.3687 111.46C85.622 110.98 85.0287 110.307 84.5887 109.44C84.162 108.56 83.9487 107.547 83.9487 106.4ZM92.3087 106.42C92.3087 105.567 92.0687 104.893 91.5887 104.4C91.122 103.907 90.5487 103.66 89.8687 103.66C89.1887 103.66 88.6087 103.907 88.1287 104.4C87.662 104.88 87.4287 105.547 87.4287 106.4C87.4287 107.253 87.662 107.933 88.1287 108.44C88.6087 108.933 89.1887 109.18 89.8687 109.18C90.5487 109.18 91.122 108.933 91.5887 108.44C92.0687 107.947 92.3087 107.273 92.3087 106.42ZM99.9029 99.68C99.3029 99.68 98.8096 99.5067 98.4229 99.16C98.0496 98.8 97.8629 98.36 97.8629 97.84C97.8629 97.3067 98.0496 96.8667 98.4229 96.52C98.8096 96.16 99.3029 95.98 99.9029 95.98C100.49 95.98 100.97 96.16 101.343 96.52C101.73 96.8667 101.923 97.3067 101.923 97.84C101.923 98.36 101.73 98.8 101.343 99.16C100.97 99.5067 100.49 99.68 99.9029 99.68ZM101.623 113.44C101.623 114.813 101.276 115.8 100.583 116.4C99.8896 117.013 98.9229 117.32 97.6829 117.32H96.3429V114.42H97.1629C97.5362 114.42 97.8029 114.347 97.9629 114.2C98.1229 114.053 98.2029 113.813 98.2029 113.48V100.84H101.623V113.44ZM103.402 106.4C103.402 105.253 103.615 104.247 104.042 103.38C104.482 102.513 105.075 101.847 105.822 101.38C106.568 100.913 107.402 100.68 108.322 100.68C109.108 100.68 109.795 100.84 110.382 101.16C110.982 101.48 111.442 101.9 111.762 102.42V100.84H115.182V112H111.762V110.42C111.428 110.94 110.962 111.36 110.362 111.68C109.775 112 109.088 112.16 108.302 112.16C107.395 112.16 106.568 111.927 105.822 111.46C105.075 110.98 104.482 110.307 104.042 109.44C103.615 108.56 103.402 107.547 103.402 106.4ZM111.762 106.42C111.762 105.567 111.522 104.893 111.042 104.4C110.575 103.907 110.002 103.66 109.322 103.66C108.642 103.66 108.062 103.907 107.582 104.4C107.115 104.88 106.882 105.547 106.882 106.4C106.882 107.253 107.115 107.933 107.582 108.44C108.062 108.933 108.642 109.18 109.322 109.18C110.002 109.18 110.575 108.933 111.042 108.44C111.522 107.947 111.762 107.273 111.762 106.42ZM121.076 102.7C121.476 102.087 121.976 101.607 122.576 101.26C123.176 100.9 123.843 100.72 124.576 100.72V104.34H123.636C122.783 104.34 122.143 104.527 121.716 104.9C121.289 105.26 121.076 105.9 121.076 106.82V112H117.656V100.84H121.076V102.7ZM138.949 104.8C139.762 104.973 140.416 105.38 140.909 106.02C141.402 106.647 141.649 107.367 141.649 108.18C141.649 109.353 141.236 110.287 140.409 110.98C139.596 111.66 138.456 112 136.989 112H130.449V97.96H136.769C138.196 97.96 139.309 98.2867 140.109 98.94C140.922 99.5933 141.329 100.48 141.329 101.6C141.329 102.427 141.109 103.113 140.669 103.66C140.242 104.207 139.669 104.587 138.949 104.8ZM133.869 103.64H136.109C136.669 103.64 137.096 103.52 137.389 103.28C137.696 103.027 137.849 102.66 137.849 102.18C137.849 101.7 137.696 101.333 137.389 101.08C137.096 100.827 136.669 100.7 136.109 100.7H133.869V103.64ZM136.389 109.24C136.962 109.24 137.402 109.113 137.709 108.86C138.029 108.593 138.189 108.213 138.189 107.72C138.189 107.227 138.022 106.84 137.689 106.56C137.369 106.28 136.922 106.14 136.349 106.14H133.869V109.24H136.389ZM142.953 106.4C142.953 105.253 143.166 104.247 143.593 103.38C144.033 102.513 144.626 101.847 145.373 101.38C146.119 100.913 146.953 100.68 147.873 100.68C148.659 100.68 149.346 100.84 149.933 101.16C150.533 101.48 150.993 101.9 151.313 102.42V100.84H154.733V112H151.313V110.42C150.979 110.94 150.513 111.36 149.913 111.68C149.326 112 148.639 112.16 147.853 112.16C146.946 112.16 146.119 111.927 145.373 111.46C144.626 110.98 144.033 110.307 143.593 109.44C143.166 108.56 142.953 107.547 142.953 106.4ZM151.313 106.42C151.313 105.567 151.073 104.893 150.593 104.4C150.126 103.907 149.553 103.66 148.873 103.66C148.193 103.66 147.613 103.907 147.133 104.4C146.666 104.88 146.433 105.547 146.433 106.4C146.433 107.253 146.666 107.933 147.133 108.44C147.613 108.933 148.193 109.18 148.873 109.18C149.553 109.18 150.126 108.933 150.593 108.44C151.073 107.947 151.313 107.273 151.313 106.42ZM164.067 100.72C165.347 100.72 166.373 101.147 167.147 102C167.92 102.84 168.307 104 168.307 105.48V112H164.907V105.94C164.907 105.193 164.713 104.613 164.327 104.2C163.94 103.787 163.42 103.58 162.767 103.58C162.113 103.58 161.593 103.787 161.207 104.2C160.82 104.613 160.627 105.193 160.627 105.94V112H157.207V97.2H160.627V102.34C160.973 101.847 161.447 101.453 162.047 101.16C162.647 100.867 163.32 100.72 164.067 100.72ZM170.003 106.4C170.003 105.253 170.217 104.247 170.643 103.38C171.083 102.513 171.677 101.847 172.423 101.38C173.17 100.913 174.003 100.68 174.923 100.68C175.71 100.68 176.397 100.84 176.983 101.16C177.583 101.48 178.043 101.9 178.363 102.42V100.84H181.783V112H178.363V110.42C178.03 110.94 177.563 111.36 176.963 111.68C176.377 112 175.69 112.16 174.903 112.16C173.997 112.16 173.17 111.927 172.423 111.46C171.677 110.98 171.083 110.307 170.643 109.44C170.217 108.56 170.003 107.547 170.003 106.4ZM178.363 106.42C178.363 105.567 178.123 104.893 177.643 104.4C177.177 103.907 176.603 103.66 175.923 103.66C175.243 103.66 174.663 103.907 174.183 104.4C173.717 104.88 173.483 105.547 173.483 106.4C173.483 107.253 173.717 107.933 174.183 108.44C174.663 108.933 175.243 109.18 175.923 109.18C176.603 109.18 177.177 108.933 177.643 108.44C178.123 107.947 178.363 107.273 178.363 106.42ZM188.798 112.16C187.824 112.16 186.958 111.993 186.198 111.66C185.438 111.327 184.838 110.873 184.398 110.3C183.958 109.713 183.711 109.06 183.658 108.34H187.038C187.078 108.727 187.258 109.04 187.578 109.28C187.898 109.52 188.291 109.64 188.758 109.64C189.184 109.64 189.511 109.56 189.738 109.4C189.978 109.227 190.098 109.007 190.098 108.74C190.098 108.42 189.931 108.187 189.598 108.04C189.264 107.88 188.724 107.707 187.978 107.52C187.178 107.333 186.511 107.14 185.978 106.94C185.444 106.727 184.984 106.4 184.598 105.96C184.211 105.507 184.018 104.9 184.018 104.14C184.018 103.5 184.191 102.92 184.538 102.4C184.898 101.867 185.418 101.447 186.098 101.14C186.791 100.833 187.611 100.68 188.558 100.68C189.958 100.68 191.058 101.027 191.858 101.72C192.671 102.413 193.138 103.333 193.258 104.48H190.098C190.044 104.093 189.871 103.787 189.578 103.56C189.298 103.333 188.924 103.22 188.458 103.22C188.058 103.22 187.751 103.3 187.538 103.46C187.324 103.607 187.218 103.813 187.218 104.08C187.218 104.4 187.384 104.64 187.718 104.8C188.064 104.96 188.598 105.12 189.318 105.28C190.144 105.493 190.818 105.707 191.338 105.92C191.858 106.12 192.311 106.453 192.698 106.92C193.098 107.373 193.304 107.987 193.318 108.76C193.318 109.413 193.131 110 192.758 110.52C192.398 111.027 191.871 111.427 191.178 111.72C190.498 112.013 189.704 112.16 188.798 112.16ZM194.73 106.4C194.73 105.253 194.943 104.247 195.37 103.38C195.81 102.513 196.403 101.847 197.15 101.38C197.897 100.913 198.73 100.68 199.65 100.68C200.437 100.68 201.123 100.84 201.71 101.16C202.31 101.48 202.77 101.9 203.09 102.42V100.84H206.51V112H203.09V110.42C202.757 110.94 202.29 111.36 201.69 111.68C201.103 112 200.417 112.16 199.63 112.16C198.723 112.16 197.897 111.927 197.15 111.46C196.403 110.98 195.81 110.307 195.37 109.44C194.943 108.56 194.73 107.547 194.73 106.4ZM203.09 106.42C203.09 105.567 202.85 104.893 202.37 104.4C201.903 103.907 201.33 103.66 200.65 103.66C199.97 103.66 199.39 103.907 198.91 104.4C198.443 104.88 198.21 105.547 198.21 106.4C198.21 107.253 198.443 107.933 198.91 108.44C199.39 108.933 199.97 109.18 200.65 109.18C201.33 109.18 201.903 108.933 202.37 108.44C202.85 107.947 203.09 107.273 203.09 106.42ZM222.022 97.96V107.52C222.022 109 221.602 110.14 220.762 110.94C219.936 111.74 218.816 112.14 217.402 112.14C215.922 112.14 214.736 111.72 213.842 110.88C212.949 110.04 212.502 108.847 212.502 107.3H215.902C215.902 107.887 216.022 108.333 216.262 108.64C216.502 108.933 216.849 109.08 217.302 109.08C217.716 109.08 218.036 108.947 218.262 108.68C218.489 108.413 218.602 108.027 218.602 107.52V97.96H222.022ZM224.105 106.4C224.105 105.253 224.318 104.247 224.745 103.38C225.185 102.513 225.778 101.847 226.525 101.38C227.272 100.913 228.105 100.68 229.025 100.68C229.812 100.68 230.498 100.84 231.085 101.16C231.685 101.48 232.145 101.9 232.465 102.42V100.84H235.885V112H232.465V110.42C232.132 110.94 231.665 111.36 231.065 111.68C230.478 112 229.792 112.16 229.005 112.16C228.098 112.16 227.272 111.927 226.525 111.46C225.778 110.98 225.185 110.307 224.745 109.44C224.318 108.56 224.105 107.547 224.105 106.4ZM232.465 106.42C232.465 105.567 232.225 104.893 231.745 104.4C231.278 103.907 230.705 103.66 230.025 103.66C229.345 103.66 228.765 103.907 228.285 104.4C227.818 104.88 227.585 105.547 227.585 106.4C227.585 107.253 227.818 107.933 228.285 108.44C228.765 108.933 229.345 109.18 230.025 109.18C230.705 109.18 231.278 108.933 231.745 108.44C232.225 107.947 232.465 107.273 232.465 106.42ZM254.379 100.84L251.359 112H247.579L245.819 104.76L243.999 112H240.239L237.199 100.84H240.619L242.199 108.82L244.079 100.84H247.699L249.599 108.78L251.159 100.84H254.379ZM255.003 106.4C255.003 105.253 255.217 104.247 255.643 103.38C256.083 102.513 256.677 101.847 257.423 101.38C258.17 100.913 259.003 100.68 259.923 100.68C260.71 100.68 261.397 100.84 261.983 101.16C262.583 101.48 263.043 101.9 263.363 102.42V100.84H266.783V112H263.363V110.42C263.03 110.94 262.563 111.36 261.963 111.68C261.377 112 260.69 112.16 259.903 112.16C258.997 112.16 258.17 111.927 257.423 111.46C256.677 110.98 256.083 110.307 255.643 109.44C255.217 108.56 255.003 107.547 255.003 106.4ZM263.363 106.42C263.363 105.567 263.123 104.893 262.643 104.4C262.177 103.907 261.603 103.66 260.923 103.66C260.243 103.66 259.663 103.907 259.183 104.4C258.717 104.88 258.483 105.547 258.483 106.4C258.483 107.253 258.717 107.933 259.183 108.44C259.663 108.933 260.243 109.18 260.923 109.18C261.603 109.18 262.177 108.933 262.643 108.44C263.123 107.947 263.363 107.273 263.363 106.42Z" fill="white"/>
<path d="M111.684 26.08C124.074 26.08 133.664 35.46 133.664 53.66C133.664 69.48 126.314 78.79 113.994 79H103.914V48.83C103.914 44.63 100.344 41.27 100.344 41.27L108.394 37.7C108.394 37.7 113.994 39.73 113.994 46.87V76.34C120.924 75.22 124.004 66.26 124.004 56.39C124.004 41.62 115.744 34.9 107.834 34.9C101.744 34.9 95.8643 38.89 94.0443 46.24H93.9743C91.5243 36.58 96.7043 26.08 111.684 26.08ZM141.668 29.37C141.668 29.37 147.198 31.33 147.198 38.47V78.58H137.188V40.5C137.188 36.23 133.618 32.94 133.618 32.94L141.668 29.37ZM185.812 68.71C185.812 74.38 189.382 75.43 189.382 75.43L185.182 80.4C185.182 80.4 175.802 81.73 175.802 73.33V72.63C174.542 76.69 171.672 79.56 165.582 79.56C156.062 79.56 149.972 71.93 149.972 55.34V54.92C149.972 41.83 156.272 31.19 169.292 31.19C177.482 31.19 181.192 38.4 181.192 38.4L181.122 38.47C178.392 37.35 175.872 36.86 173.562 36.86C165.512 36.86 160.402 43.44 160.402 55.13C160.402 67.52 165.442 73.4 169.782 73.4C173.002 73.4 175.802 70.18 175.802 63.81V54.22H185.812V68.71ZM196.56 29.37C196.56 29.37 202.09 31.33 202.09 38.47V78.58H192.08V40.5C192.08 36.23 188.51 32.94 188.51 32.94L196.56 29.37ZM241.895 32.66H252.535C252.535 32.66 250.645 79.91 237.205 79.91C233.005 79.91 230.345 77.32 228.595 73.4C226.635 77.32 224.115 79.91 220.965 79.91C205.285 79.91 211.445 41.76 203.815 33.08C206.335 32.03 211.515 29.51 211.515 29.51C211.515 29.51 217.115 31.47 217.115 38.68C217.115 49.6 218.445 76.13 221.035 76.13C225.445 76.13 225.655 32.66 225.655 32.66H236.295C236.295 32.66 235.875 43.09 234.055 54.22C231.815 67.87 234.545 76.13 237.275 76.13C241.685 76.13 241.895 32.66 241.895 32.66ZM281.042 67.38C282.372 72.98 286.012 73.12 286.012 73.12L283.072 78.93C283.072 78.93 281.322 79.63 279.152 79.63C276.562 79.63 273.412 78.58 272.292 74.17C271.872 72.49 271.242 70.04 270.682 67.52C269.842 75.85 263.402 79.98 257.942 79.98C253.532 79.98 249.752 77.39 249.752 72.21C249.752 58.21 267.042 51.77 263.262 35.18C262.912 33.64 262.702 32.73 262.702 32.73L272.502 30.49L281.042 67.38ZM259.412 67.17C259.412 70.25 261.162 71.72 263.122 71.72C266.482 71.72 270.612 67.52 268.792 59.12C267.532 53.8 266.272 48.27 265.222 43.58C265.502 54.85 259.412 61.57 259.412 67.17Z" fill="#D4FFEF"/>
<g filter="url(#filter0_d_2010_637)">
<path d="M30 51.1077C30.2344 51.4358 30.7734 52.1624 31.0547 52.4436C31.3359 52.7249 32.0625 53.2171 32.3906 53.428L33.5156 53.9202C33.8672 54.014 34.6547 54.2015 34.9922 54.2015C35.3297 54.2015 38.3203 53.5452 39.7734 53.2171L44.2031 51.1077L48.9141 48.5764L55.3125 45.0608L64.5235 40.4202L78.0235 34.0217C77.3907 33.1546 75.9563 31.3077 75.2813 30.8577C74.4375 30.2952 73.2422 29.7327 72.6094 29.5217C71.9766 29.3108 69.1641 29.1702 68.1094 29.7327C67.2657 30.1827 64.2422 31.4202 62.836 31.9827L48.5625 38.0999L30.534 45.8343L30 51.1077Z" fill="#DFBD4F"/>
<path d="M59.3906 44.0061L69.0234 39.928L83.5078 46.1155L84 51.0373L81.2578 52.9358C80.6015 53.3108 79.1484 54.0608 78.5859 54.0608C77.8828 54.0608 77.039 54.2717 76.4765 54.0608C76.0265 53.892 73.289 52.7248 71.9765 52.1623L65.3672 47.803L60.3047 44.7092L59.3906 44.0061Z" fill="#DFBD4F"/>
<path d="M50.0391 49.9123L58.1953 45.4826L64.5938 49.2795L57 57.0139L50.0391 49.9123Z" fill="#DFBD4F"/>
<path d="M34.7109 35.5686C33.4453 37.9124 30.9281 42.8249 30.9843 43.7249H31.5468L41.5312 39.3655L42.6562 38.803L34.7109 35.5686Z" fill="#DFBD4F"/>
<path d="M35.9765 34.0921L44.9062 37.8186L54.3984 33.8108L54.539 33.7405L46.7344 30.2249C45.914 29.9436 44.1469 29.3952 43.6406 29.4515C43.0078 29.5218 40.9687 29.5921 39.8437 30.2249C38.9437 30.7311 37.2187 32.4515 36.4687 33.2483L35.9765 34.0921Z" fill="#DFBD4F"/>
<path d="M46.5234 28.1155C48.4687 27.3655 53.0906 25.8936 56.0156 26.0061C59.6719 26.1467 62.7656 26.5686 63.8906 26.9202C64.7906 27.2014 66.7031 27.8342 67.5469 28.1155V28.3967L56.8594 32.6155L46.5234 28.1155Z" fill="#DFBD4F"/>
<path d="M71.4844 38.8733L79.1484 35.5686C80.5313 37.889 83.2266 42.7405 82.9453 43.5843V43.7249L71.4844 38.8733Z" fill="#DFBD4F"/>
<path d="M30.0702 69.1077C30.6796 69.8811 31.9405 71.4702 32.1093 71.6389C32.3202 71.8499 35.6249 74.592 37.5234 75.2952C39.0421 75.8577 40.9218 76.3264 41.6718 76.4905L44.8359 76.9124H49.0546C50.0624 76.842 52.1906 76.6592 52.6406 76.4905C53.0906 76.3217 54.6093 75.8108 55.3124 75.5764L56.9999 74.592L58.4765 75.5061C59.2734 75.8108 60.9234 76.4342 61.1484 76.4905C61.4296 76.5608 63.0468 76.9124 63.8203 76.9124C64.439 76.9124 66.1406 77.0061 66.914 77.053L71.5546 76.6311L75 75.8577L77.9531 74.5217L80.8359 72.6233L82.8046 70.6545L83.8593 69.0374L81.6796 69.4592C80.414 69.6936 77.5453 70.1342 76.1953 70.0217C74.8453 69.9092 73.9453 69.7874 73.664 69.7405L71.2734 69.4592L66.0703 68.053L63.1171 67.1389C62.1328 66.928 59.9671 66.5342 59.1796 66.6467C58.3921 66.7592 57.3984 67.6311 56.9999 68.053L56.1562 67.3499C55.9452 67.1155 55.3265 66.6467 54.539 66.6467C53.5546 66.6467 50.7421 67.0686 49.5468 67.5608C48.5906 67.9545 46.8046 68.428 46.0312 68.6155L43.289 69.4592L40.6171 69.8811H34.9921L32.6718 69.4592L30.703 69.1077H30.0702Z" fill="#DFBD4F"/>
</g>
<defs>
<filter id="filter0_d_2010_637" x="0.4" y="0.4" width="113.2" height="110.253" filterUnits="userSpaceOnUse" color-interpolation-filters="sRGB">
<feFlood flood-opacity="0" result="BackgroundImageFix"/>
<feColorMatrix in="SourceAlpha" type="matrix" values="0 0 0 0 0 0 0 0 0 0 0 0 0 0 0 0 0 0 127 0" result="hardAlpha"/>
<feOffset dy="4"/>
<feGaussianBlur stdDeviation="14.8"/>
<feComposite in2="hardAlpha" operator="out"/>
<feColorMatrix type="matrix" values="0 0 0 0 0 0 0 0 0 0 0 0 0 0 0 0 0 0 0.25 0"/>
<feBlend mode="normal" in2="BackgroundImageFix" result="effect1_dropShadow_2010_637"/>
<feBlend mode="normal" in="SourceGraphic" in2="effect1_dropShadow_2010_637" result="shape"/>
</filter>
</defs>
</svg>
