<svg width="292" height="205" viewBox="0 0 292 205" fill="none" xmlns="http://www.w3.org/2000/svg">
<g opacity="0.8">
<g opacity="0.88">
<path d="M107 35.9012C107.335 36.3704 108.106 37.4093 108.508 37.8114C108.91 38.2136 109.949 38.9174 110.418 39.219L112.027 39.9228C112.53 40.0568 113.656 40.3249 114.138 40.3249C114.621 40.3249 118.897 39.3865 120.975 38.9174L127.309 35.9012L134.045 32.2818L143.194 27.2548L156.365 20.6193L175.668 11.4702C174.763 10.2302 172.712 7.58941 171.747 6.94596C170.541 6.14165 168.831 5.33733 167.927 5.03572C167.022 4.7341 163 4.53302 161.492 5.33733C160.286 5.98078 155.962 7.75027 153.952 8.55458L133.542 17.3015L107.764 28.3608L107 35.9012Z" fill="#DFBD4F"/>
<path d="M149.025 25.7467L162.799 19.9154L183.51 28.7628L184.214 35.8006L180.293 38.5151C179.355 39.0513 177.277 40.1237 176.472 40.1237C175.467 40.1237 174.261 40.4254 173.456 40.1237C172.813 39.8825 168.898 38.2135 167.022 37.4092L157.571 31.1758L150.332 26.7521L149.025 25.7467Z" fill="#DFBD4F"/>
<path d="M135.654 34.1919L147.316 27.858L156.465 33.2871L145.607 44.3464L135.654 34.1919Z" fill="#DFBD4F"/>
<path d="M113.736 13.6821C111.926 17.0334 108.327 24.0577 108.407 25.3446H109.212L123.488 19.1112L125.097 18.3069L113.736 13.6821Z" fill="#DFBD4F"/>
<path d="M115.546 11.5708L128.314 16.8993L141.887 11.1686L142.088 11.0681L130.928 6.04112C129.755 5.63896 127.228 4.85476 126.505 4.93519C125.6 5.03573 122.684 5.13627 121.075 6.04112C119.789 6.765 117.322 9.22485 116.25 10.3643L115.546 11.5708Z" fill="#DFBD4F"/>
<path d="M130.627 3.02489C133.408 1.95247 140.017 -0.152142 144.199 0.00872024C149.427 0.209798 153.851 0.813032 155.46 1.31573C156.747 1.71788 159.481 2.62273 160.688 3.02489V3.42705L145.406 9.45938L130.627 3.02489Z" fill="#DFBD4F"/>
<path opacity="0.88" d="M167 18.7253L177.959 14C179.936 17.3178 183.79 24.255 183.388 25.4614V25.6625L167 18.7253Z" fill="#DFBD4F"/>
<path d="M107.1 61.6391C107.972 62.745 109.775 65.0172 110.016 65.2585C110.318 65.5601 115.043 69.4811 117.758 70.4865C119.929 71.2908 122.617 71.9611 123.689 72.1957L128.214 72.7989H134.246C135.687 72.6984 138.73 72.437 139.373 72.1957C140.017 71.9544 142.189 71.2238 143.194 70.8887L145.607 69.4811L147.718 70.7881C148.858 71.2238 151.217 72.1152 151.539 72.1957C151.941 72.2962 154.253 72.7989 155.359 72.7989C156.244 72.7989 158.677 72.9329 159.783 73L166.418 72.3967L171.345 71.2908L175.568 69.3806L179.69 66.666L182.505 63.8509L184.013 61.5385L180.896 62.1418C179.086 62.4769 174.984 63.1069 173.054 62.9461C171.124 62.7852 169.837 62.6109 169.435 62.5439L166.016 62.1418L158.576 60.131L154.354 58.824C152.946 58.5224 149.85 57.9593 148.724 58.1202C147.598 58.2811 146.177 59.5277 145.607 60.131L144.4 59.1256C144.099 58.7905 143.214 58.1202 142.088 58.1202C140.68 58.1202 136.659 58.7234 134.95 59.4272C133.582 59.9902 131.029 60.6672 129.923 60.9353L126.002 62.1418L122.181 62.745H114.138L110.82 62.1418L108.005 61.6391H107.1Z" fill="#DFBD4F"/>
</g>
<path d="M68.6843 92.08C81.0743 92.08 90.6643 101.46 90.6643 119.66C90.6643 135.48 83.3143 144.79 70.9943 145H60.9143V114.83C60.9143 110.63 57.3443 107.27 57.3443 107.27L65.3943 103.7C65.3943 103.7 70.9943 105.73 70.9943 112.87V142.34C77.9243 141.22 81.0043 132.26 81.0043 122.39C81.0043 107.62 72.7443 100.9 64.8343 100.9C58.7443 100.9 52.8643 104.89 51.0443 112.24H50.9743C48.5243 102.58 53.7043 92.08 68.6843 92.08ZM98.6679 95.37C98.6679 95.37 104.198 97.33 104.198 104.47V144.58H94.1879V106.5C94.1879 102.23 90.6179 98.94 90.6179 98.94L98.6679 95.37ZM142.812 134.71C142.812 140.38 146.382 141.43 146.382 141.43L142.182 146.4C142.182 146.4 132.802 147.73 132.802 139.33V138.63C131.542 142.69 128.672 145.56 122.582 145.56C113.062 145.56 106.972 137.93 106.972 121.34V120.92C106.972 107.83 113.272 97.19 126.292 97.19C134.482 97.19 138.192 104.4 138.192 104.4L138.122 104.47C135.392 103.35 132.872 102.86 130.562 102.86C122.512 102.86 117.402 109.44 117.402 121.13C117.402 133.52 122.442 139.4 126.782 139.4C130.002 139.4 132.802 136.18 132.802 129.81V120.22H142.812V134.71ZM153.56 95.37C153.56 95.37 159.09 97.33 159.09 104.47V144.58H149.08V106.5C149.08 102.23 145.51 98.94 145.51 98.94L153.56 95.37ZM198.895 98.66H209.535C209.535 98.66 207.645 145.91 194.205 145.91C190.005 145.91 187.345 143.32 185.595 139.4C183.635 143.32 181.115 145.91 177.965 145.91C162.285 145.91 168.445 107.76 160.815 99.08C163.335 98.03 168.515 95.51 168.515 95.51C168.515 95.51 174.115 97.47 174.115 104.68C174.115 115.6 175.445 142.13 178.035 142.13C182.445 142.13 182.655 98.66 182.655 98.66H193.295C193.295 98.66 192.875 109.09 191.055 120.22C188.815 133.87 191.545 142.13 194.275 142.13C198.685 142.13 198.895 98.66 198.895 98.66ZM238.042 133.38C239.372 138.98 243.012 139.12 243.012 139.12L240.072 144.93C240.072 144.93 238.322 145.63 236.152 145.63C233.562 145.63 230.412 144.58 229.292 140.17C228.872 138.49 228.242 136.04 227.682 133.52C226.842 141.85 220.402 145.98 214.942 145.98C210.532 145.98 206.752 143.39 206.752 138.21C206.752 124.21 224.042 117.77 220.262 101.18C219.912 99.64 219.702 98.73 219.702 98.73L229.502 96.49L238.042 133.38ZM216.412 133.17C216.412 136.25 218.162 137.72 220.122 137.72C223.482 137.72 227.612 133.52 225.792 125.12C224.532 119.8 223.272 114.27 222.222 109.58C222.502 120.85 216.412 127.57 216.412 133.17Z" fill="#D4FFEF"/>
<path d="M10.1931 174.8C11.0065 174.973 11.6598 175.38 12.1531 176.02C12.6465 176.647 12.8931 177.367 12.8931 178.18C12.8931 179.353 12.4798 180.287 11.6531 180.98C10.8398 181.66 9.69979 182 8.23313 182H1.69313V167.96H8.01313C9.43979 167.96 10.5531 168.287 11.3531 168.94C12.1665 169.593 12.5731 170.48 12.5731 171.6C12.5731 172.427 12.3531 173.113 11.9131 173.66C11.4865 174.207 10.9131 174.587 10.1931 174.8ZM5.11313 173.64H7.35313C7.91313 173.64 8.33979 173.52 8.63313 173.28C8.93979 173.027 9.09313 172.66 9.09313 172.18C9.09313 171.7 8.93979 171.333 8.63313 171.08C8.33979 170.827 7.91313 170.7 7.35313 170.7H5.11313V173.64ZM7.63313 179.24C8.20646 179.24 8.64646 179.113 8.95313 178.86C9.27313 178.593 9.43313 178.213 9.43313 177.72C9.43313 177.227 9.26646 176.84 8.93313 176.56C8.61313 176.28 8.16646 176.14 7.59313 176.14H5.11313V179.24H7.63313ZM25.3967 176.24C25.3967 176.56 25.3767 176.893 25.3367 177.24H17.5967C17.6501 177.933 17.8701 178.467 18.2567 178.84C18.6567 179.2 19.1434 179.38 19.7167 179.38C20.5701 179.38 21.1634 179.02 21.4967 178.3H25.1367C24.9501 179.033 24.6101 179.693 24.1167 180.28C23.6367 180.867 23.0301 181.327 22.2967 181.66C21.5634 181.993 20.7434 182.16 19.8367 182.16C18.7434 182.16 17.7701 181.927 16.9167 181.46C16.0634 180.993 15.3967 180.327 14.9167 179.46C14.4367 178.593 14.1967 177.58 14.1967 176.42C14.1967 175.26 14.4301 174.247 14.8967 173.38C15.3767 172.513 16.0434 171.847 16.8967 171.38C17.7501 170.913 18.7301 170.68 19.8367 170.68C20.9167 170.68 21.8767 170.907 22.7167 171.36C23.5567 171.813 24.2101 172.46 24.6767 173.3C25.1567 174.14 25.3967 175.12 25.3967 176.24ZM21.8967 175.34C21.8967 174.753 21.6967 174.287 21.2967 173.94C20.8967 173.593 20.3967 173.42 19.7967 173.42C19.2234 173.42 18.7367 173.587 18.3367 173.92C17.9501 174.253 17.7101 174.727 17.6167 175.34H21.8967ZM30.6209 167.2V182H27.2009V167.2H30.6209ZM32.4194 176.4C32.4194 175.253 32.6327 174.247 33.0594 173.38C33.4994 172.513 34.0927 171.847 34.8394 171.38C35.586 170.913 36.4194 170.68 37.3394 170.68C38.126 170.68 38.8127 170.84 39.3994 171.16C39.9994 171.48 40.4594 171.9 40.7794 172.42V170.84H44.1994V182H40.7794V180.42C40.446 180.94 39.9794 181.36 39.3794 181.68C38.7927 182 38.106 182.16 37.3194 182.16C36.4127 182.16 35.586 181.927 34.8394 181.46C34.0927 180.98 33.4994 180.307 33.0594 179.44C32.6327 178.56 32.4194 177.547 32.4194 176.4ZM40.7794 176.42C40.7794 175.567 40.5394 174.893 40.0594 174.4C39.5927 173.907 39.0194 173.66 38.3394 173.66C37.6594 173.66 37.0794 173.907 36.5994 174.4C36.1327 174.88 35.8994 175.547 35.8994 176.4C35.8994 177.253 36.1327 177.933 36.5994 178.44C37.0794 178.933 37.6594 179.18 38.3394 179.18C39.0194 179.18 39.5927 178.933 40.0594 178.44C40.5394 177.947 40.7794 177.273 40.7794 176.42ZM48.3736 169.68C47.7736 169.68 47.2803 169.507 46.8936 169.16C46.5203 168.8 46.3336 168.36 46.3336 167.84C46.3336 167.307 46.5203 166.867 46.8936 166.52C47.2803 166.16 47.7736 165.98 48.3736 165.98C48.9603 165.98 49.4403 166.16 49.8136 166.52C50.2003 166.867 50.3936 167.307 50.3936 167.84C50.3936 168.36 50.2003 168.8 49.8136 169.16C49.4403 169.507 48.9603 169.68 48.3736 169.68ZM50.0936 183.44C50.0936 184.813 49.7469 185.8 49.0536 186.4C48.3603 187.013 47.3936 187.32 46.1536 187.32H44.8136V184.42H45.6336C46.0069 184.42 46.2736 184.347 46.4336 184.2C46.5936 184.053 46.6736 183.813 46.6736 183.48V170.84H50.0936V183.44ZM51.8725 176.4C51.8725 175.253 52.0858 174.247 52.5125 173.38C52.9525 172.513 53.5458 171.847 54.2925 171.38C55.0392 170.913 55.8725 170.68 56.7925 170.68C57.5792 170.68 58.2658 170.84 58.8525 171.16C59.4525 171.48 59.9125 171.9 60.2325 172.42V170.84H63.6525V182H60.2325V180.42C59.8992 180.94 59.4325 181.36 58.8325 181.68C58.2458 182 57.5592 182.16 56.7725 182.16C55.8658 182.16 55.0392 181.927 54.2925 181.46C53.5458 180.98 52.9525 180.307 52.5125 179.44C52.0858 178.56 51.8725 177.547 51.8725 176.4ZM60.2325 176.42C60.2325 175.567 59.9925 174.893 59.5125 174.4C59.0458 173.907 58.4725 173.66 57.7925 173.66C57.1125 173.66 56.5325 173.907 56.0525 174.4C55.5858 174.88 55.3525 175.547 55.3525 176.4C55.3525 177.253 55.5858 177.933 56.0525 178.44C56.5325 178.933 57.1125 179.18 57.7925 179.18C58.4725 179.18 59.0458 178.933 59.5125 178.44C59.9925 177.947 60.2325 177.273 60.2325 176.42ZM69.5467 172.7C69.9467 172.087 70.4467 171.607 71.0467 171.26C71.6467 170.9 72.3134 170.72 73.0467 170.72V174.34H72.1067C71.2534 174.34 70.6134 174.527 70.1867 174.9C69.7601 175.26 69.5467 175.9 69.5467 176.82V182H66.1267V170.84H69.5467V172.7ZM87.4197 174.8C88.233 174.973 88.8864 175.38 89.3797 176.02C89.873 176.647 90.1197 177.367 90.1197 178.18C90.1197 179.353 89.7064 180.287 88.8797 180.98C88.0664 181.66 86.9264 182 85.4597 182H78.9197V167.96H85.2397C86.6664 167.96 87.7797 168.287 88.5797 168.94C89.393 169.593 89.7997 170.48 89.7997 171.6C89.7997 172.427 89.5797 173.113 89.1397 173.66C88.713 174.207 88.1397 174.587 87.4197 174.8ZM82.3397 173.64H84.5797C85.1397 173.64 85.5664 173.52 85.8597 173.28C86.1664 173.027 86.3197 172.66 86.3197 172.18C86.3197 171.7 86.1664 171.333 85.8597 171.08C85.5664 170.827 85.1397 170.7 84.5797 170.7H82.3397V173.64ZM84.8597 179.24C85.433 179.24 85.873 179.113 86.1797 178.86C86.4997 178.593 86.6597 178.213 86.6597 177.72C86.6597 177.227 86.493 176.84 86.1597 176.56C85.8397 176.28 85.393 176.14 84.8197 176.14H82.3397V179.24H84.8597ZM91.4233 176.4C91.4233 175.253 91.6366 174.247 92.0633 173.38C92.5033 172.513 93.0966 171.847 93.8433 171.38C94.5899 170.913 95.4233 170.68 96.3433 170.68C97.1299 170.68 97.8166 170.84 98.4033 171.16C99.0033 171.48 99.4633 171.9 99.7833 172.42V170.84H103.203V182H99.7833V180.42C99.4499 180.94 98.9833 181.36 98.3833 181.68C97.7966 182 97.1099 182.16 96.3233 182.16C95.4166 182.16 94.5899 181.927 93.8433 181.46C93.0966 180.98 92.5033 180.307 92.0633 179.44C91.6366 178.56 91.4233 177.547 91.4233 176.4ZM99.7833 176.42C99.7833 175.567 99.5433 174.893 99.0633 174.4C98.5966 173.907 98.0233 173.66 97.3433 173.66C96.6633 173.66 96.0833 173.907 95.6033 174.4C95.1366 174.88 94.9033 175.547 94.9033 176.4C94.9033 177.253 95.1366 177.933 95.6033 178.44C96.0833 178.933 96.6633 179.18 97.3433 179.18C98.0233 179.18 98.5966 178.933 99.0633 178.44C99.5433 177.947 99.7833 177.273 99.7833 176.42ZM112.538 170.72C113.818 170.72 114.844 171.147 115.618 172C116.391 172.84 116.778 174 116.778 175.48V182H113.378V175.94C113.378 175.193 113.184 174.613 112.798 174.2C112.411 173.787 111.891 173.58 111.238 173.58C110.584 173.58 110.064 173.787 109.678 174.2C109.291 174.613 109.098 175.193 109.098 175.94V182H105.678V167.2H109.098V172.34C109.444 171.847 109.918 171.453 110.518 171.16C111.118 170.867 111.791 170.72 112.538 170.72ZM118.474 176.4C118.474 175.253 118.687 174.247 119.114 173.38C119.554 172.513 120.147 171.847 120.894 171.38C121.641 170.913 122.474 170.68 123.394 170.68C124.181 170.68 124.867 170.84 125.454 171.16C126.054 171.48 126.514 171.9 126.834 172.42V170.84H130.254V182H126.834V180.42C126.501 180.94 126.034 181.36 125.434 181.68C124.847 182 124.161 182.16 123.374 182.16C122.467 182.16 121.641 181.927 120.894 181.46C120.147 180.98 119.554 180.307 119.114 179.44C118.687 178.56 118.474 177.547 118.474 176.4ZM126.834 176.42C126.834 175.567 126.594 174.893 126.114 174.4C125.647 173.907 125.074 173.66 124.394 173.66C123.714 173.66 123.134 173.907 122.654 174.4C122.187 174.88 121.954 175.547 121.954 176.4C121.954 177.253 122.187 177.933 122.654 178.44C123.134 178.933 123.714 179.18 124.394 179.18C125.074 179.18 125.647 178.933 126.114 178.44C126.594 177.947 126.834 177.273 126.834 176.42ZM137.268 182.16C136.295 182.16 135.428 181.993 134.668 181.66C133.908 181.327 133.308 180.873 132.868 180.3C132.428 179.713 132.182 179.06 132.128 178.34H135.508C135.548 178.727 135.728 179.04 136.048 179.28C136.368 179.52 136.762 179.64 137.228 179.64C137.655 179.64 137.982 179.56 138.208 179.4C138.448 179.227 138.568 179.007 138.568 178.74C138.568 178.42 138.402 178.187 138.068 178.04C137.735 177.88 137.195 177.707 136.448 177.52C135.648 177.333 134.982 177.14 134.448 176.94C133.915 176.727 133.455 176.4 133.068 175.96C132.682 175.507 132.488 174.9 132.488 174.14C132.488 173.5 132.662 172.92 133.008 172.4C133.368 171.867 133.888 171.447 134.568 171.14C135.262 170.833 136.082 170.68 137.028 170.68C138.428 170.68 139.528 171.027 140.328 171.72C141.142 172.413 141.608 173.333 141.728 174.48H138.568C138.515 174.093 138.342 173.787 138.048 173.56C137.768 173.333 137.395 173.22 136.928 173.22C136.528 173.22 136.222 173.3 136.008 173.46C135.795 173.607 135.688 173.813 135.688 174.08C135.688 174.4 135.855 174.64 136.188 174.8C136.535 174.96 137.068 175.12 137.788 175.28C138.615 175.493 139.288 175.707 139.808 175.92C140.328 176.12 140.782 176.453 141.168 176.92C141.568 177.373 141.775 177.987 141.788 178.76C141.788 179.413 141.602 180 141.228 180.52C140.868 181.027 140.342 181.427 139.648 181.72C138.968 182.013 138.175 182.16 137.268 182.16ZM143.201 176.4C143.201 175.253 143.414 174.247 143.841 173.38C144.281 172.513 144.874 171.847 145.621 171.38C146.367 170.913 147.201 170.68 148.121 170.68C148.907 170.68 149.594 170.84 150.181 171.16C150.781 171.48 151.241 171.9 151.561 172.42V170.84H154.981V182H151.561V180.42C151.227 180.94 150.761 181.36 150.161 181.68C149.574 182 148.887 182.16 148.101 182.16C147.194 182.16 146.367 181.927 145.621 181.46C144.874 180.98 144.281 180.307 143.841 179.44C143.414 178.56 143.201 177.547 143.201 176.4ZM151.561 176.42C151.561 175.567 151.321 174.893 150.841 174.4C150.374 173.907 149.801 173.66 149.121 173.66C148.441 173.66 147.861 173.907 147.381 174.4C146.914 174.88 146.681 175.547 146.681 176.4C146.681 177.253 146.914 177.933 147.381 178.44C147.861 178.933 148.441 179.18 149.121 179.18C149.801 179.18 150.374 178.933 150.841 178.44C151.321 177.947 151.561 177.273 151.561 176.42ZM170.493 167.96V177.52C170.493 179 170.073 180.14 169.233 180.94C168.406 181.74 167.286 182.14 165.873 182.14C164.393 182.14 163.206 181.72 162.313 180.88C161.42 180.04 160.973 178.847 160.973 177.3H164.373C164.373 177.887 164.493 178.333 164.733 178.64C164.973 178.933 165.32 179.08 165.773 179.08C166.186 179.08 166.506 178.947 166.733 178.68C166.96 178.413 167.073 178.027 167.073 177.52V167.96H170.493ZM172.576 176.4C172.576 175.253 172.789 174.247 173.216 173.38C173.656 172.513 174.249 171.847 174.996 171.38C175.742 170.913 176.576 170.68 177.496 170.68C178.282 170.68 178.969 170.84 179.556 171.16C180.156 171.48 180.616 171.9 180.936 172.42V170.84H184.356V182H180.936V180.42C180.602 180.94 180.136 181.36 179.536 181.68C178.949 182 178.262 182.16 177.476 182.16C176.569 182.16 175.742 181.927 174.996 181.46C174.249 180.98 173.656 180.307 173.216 179.44C172.789 178.56 172.576 177.547 172.576 176.4ZM180.936 176.42C180.936 175.567 180.696 174.893 180.216 174.4C179.749 173.907 179.176 173.66 178.496 173.66C177.816 173.66 177.236 173.907 176.756 174.4C176.289 174.88 176.056 175.547 176.056 176.4C176.056 177.253 176.289 177.933 176.756 178.44C177.236 178.933 177.816 179.18 178.496 179.18C179.176 179.18 179.749 178.933 180.216 178.44C180.696 177.947 180.936 177.273 180.936 176.42ZM202.85 170.84L199.83 182H196.05L194.29 174.76L192.47 182H188.71L185.67 170.84H189.09L190.67 178.82L192.55 170.84H196.17L198.07 178.78L199.63 170.84H202.85ZM203.474 176.4C203.474 175.253 203.687 174.247 204.114 173.38C204.554 172.513 205.147 171.847 205.894 171.38C206.641 170.913 207.474 170.68 208.394 170.68C209.181 170.68 209.867 170.84 210.454 171.16C211.054 171.48 211.514 171.9 211.834 172.42V170.84H215.254V182H211.834V180.42C211.501 180.94 211.034 181.36 210.434 181.68C209.847 182 209.161 182.16 208.374 182.16C207.467 182.16 206.641 181.927 205.894 181.46C205.147 180.98 204.554 180.307 204.114 179.44C203.687 178.56 203.474 177.547 203.474 176.4ZM211.834 176.42C211.834 175.567 211.594 174.893 211.114 174.4C210.647 173.907 210.074 173.66 209.394 173.66C208.714 173.66 208.134 173.907 207.654 174.4C207.187 174.88 206.954 175.547 206.954 176.4C206.954 177.253 207.187 177.933 207.654 178.44C208.134 178.933 208.714 179.18 209.394 179.18C210.074 179.18 210.647 178.933 211.114 178.44C211.594 177.947 211.834 177.273 211.834 176.42ZM230.107 182L225.387 175.8V182H221.967V167.96H225.387V174.12L230.067 167.96H234.087L228.647 174.84L234.287 182H230.107ZM239.332 172.7C239.732 172.087 240.232 171.607 240.832 171.26C241.432 170.9 242.099 170.72 242.832 170.72V174.34H241.892C241.039 174.34 240.399 174.527 239.972 174.9C239.545 175.26 239.332 175.9 239.332 176.82V182H235.912V170.84H239.332V172.7ZM243.787 176.4C243.787 175.253 244 174.247 244.427 173.38C244.867 172.513 245.46 171.847 246.207 171.38C246.953 170.913 247.787 170.68 248.707 170.68C249.493 170.68 250.18 170.84 250.767 171.16C251.367 171.48 251.827 171.9 252.147 172.42V170.84H255.567V182H252.147V180.42C251.813 180.94 251.347 181.36 250.747 181.68C250.16 182 249.473 182.16 248.687 182.16C247.78 182.16 246.953 181.927 246.207 181.46C245.46 180.98 244.867 180.307 244.427 179.44C244 178.56 243.787 177.547 243.787 176.4ZM252.147 176.42C252.147 175.567 251.907 174.893 251.427 174.4C250.96 173.907 250.387 173.66 249.707 173.66C249.027 173.66 248.447 173.907 247.967 174.4C247.5 174.88 247.267 175.547 247.267 176.4C247.267 177.253 247.5 177.933 247.967 178.44C248.447 178.933 249.027 179.18 249.707 179.18C250.387 179.18 250.96 178.933 251.427 178.44C251.907 177.947 252.147 177.273 252.147 176.42ZM272.281 170.72C273.667 170.72 274.767 171.14 275.581 171.98C276.407 172.82 276.821 173.987 276.821 175.48V182H273.421V175.94C273.421 175.22 273.227 174.667 272.841 174.28C272.467 173.88 271.947 173.68 271.281 173.68C270.614 173.68 270.087 173.88 269.701 174.28C269.327 174.667 269.141 175.22 269.141 175.94V182H265.741V175.94C265.741 175.22 265.547 174.667 265.161 174.28C264.787 173.88 264.267 173.68 263.601 173.68C262.934 173.68 262.407 173.88 262.021 174.28C261.647 174.667 261.461 175.22 261.461 175.94V182H258.041V170.84H261.461V172.24C261.807 171.773 262.261 171.407 262.821 171.14C263.381 170.86 264.014 170.72 264.721 170.72C265.561 170.72 266.307 170.9 266.961 171.26C267.627 171.62 268.147 172.133 268.521 172.8C268.907 172.187 269.434 171.687 270.101 171.3C270.767 170.913 271.494 170.72 272.281 170.72ZM278.533 176.4C278.533 175.253 278.746 174.247 279.173 173.38C279.613 172.513 280.206 171.847 280.953 171.38C281.699 170.913 282.533 170.68 283.453 170.68C284.239 170.68 284.926 170.84 285.513 171.16C286.113 171.48 286.573 171.9 286.893 172.42V170.84H290.313V182H286.893V180.42C286.559 180.94 286.093 181.36 285.493 181.68C284.906 182 284.219 182.16 283.433 182.16C282.526 182.16 281.699 181.927 280.953 181.46C280.206 180.98 279.613 180.307 279.173 179.44C278.746 178.56 278.533 177.547 278.533 176.4ZM286.893 176.42C286.893 175.567 286.653 174.893 286.173 174.4C285.706 173.907 285.133 173.66 284.453 173.66C283.773 173.66 283.193 173.907 282.713 174.4C282.246 174.88 282.013 175.547 282.013 176.4C282.013 177.253 282.246 177.933 282.713 178.44C283.193 178.933 283.773 179.18 284.453 179.18C285.133 179.18 285.706 178.933 286.173 178.44C286.653 177.947 286.893 177.273 286.893 176.42Z" fill="white"/>
</g>
</svg>
